# xmcd
#
# Track frame offsets:
# 150
# 6019
# 23454
# 33144
# 49468
# 57824
# 67288
# 84534
# 98329
# 108390
# 116911
# 133028
# 147403
# 161896
# 169606
# 183647
# 194006
# 200950
# 219016
# 229639
# 235385
# 238945
# 243233
# 254379
# 266835
# 280267
# 298567
# 307571
# 312854
# 319113
# 325033
# 337547
#
# Disc length: 4669 seconds
#
#
# Revision: 0
# Processed by: cddbd v1.5.2PL0 Copyright (c) Steve Scherf et al.
# Submitted via: FreeRIP 2.53 
#
DISCID=cc123b20
DTITLE=Various Artist - Listen, Seventh Edition [CD1of 6)
DYEAR=2011
DGENRE=Classical
TTITLE0=In Paradisum
TTITLE1=Columba Aspexit
TTITLE2=La Dousa Votz
TTITLE3=Alleluia. Diffusa Est Gratia
TTITLE4=Sumer is Icumen In
TTITLE5=Dame, De Qui Toute Ma Joie Vient
TTITLE6=Ave Maris Stella
TTITLE7=Pange Lingua Mass, Kyrie - from the Gloria (1of2)
TTITLE8=Pange Lingua Mass, Kyrie - from the Gloria (2of2)
TTITLE9=Mille Regrets
TTITLE10=Pope Marcellus Mass, from the Gloria
TTITLE11=As Vesta Was from Latmos Hill Descending
TTITLE12=Daphne
TTITLE13=Kemp's Jig
TTITLE14=O Magnum Mysterium
TTITLE15=The Coronation of Poppea, "Tormerai?"
TTITLE16=The Coronation Of Poppea, "Speranza, Tu Mi Vai"
TTITLE17=Dido and Aeneas "Thy Hand, Belinda", "When I Am Laid"
TTITLE18=Dido And Aeneas, "With Drooping Wings"
TTITLE19=Suite, Canzona
TTITLE20=Suite, Balletto
TTITLE21=Suite, Corrente
TTITLE22=Suite, Passacaglia
TTITLE23=Violin Concerto in G, Op. 4, No 12 (1 of 3)
TTITLE24=Violin Concerto in G, Op. 4, No 12 (2 of 3)
TTITLE25=Violin Concerto in G, Op. 4, No 12 (3 of 3)
TTITLE26=Qur'anic Recitation - Ya Sin
TTITLE27=Hawai'ian Chant - Mele Pule
TTITLE28=Navajo Song - K'adnikini'ya
TTITLE29=Inca Processional Music - Hanaq Pachap Kusikuynin
TTITLE30=Gambian Minstrel Song - Laminba
TTITLE31=Pygmy Polyphony - Elephant-hunt Song
EXTD=Albulm is a compilation of songs by\nvarious artists - Disc 1 of 6
EXTT0=Anonymous
EXTT1=Hildegard of Bingen
EXTT2=Bernart de Ventadorn
EXTT3=Pertotin
EXTT4=Anonymous
EXTT5=Machaut
EXTT6=Guillaume Dufay
EXTT7=Josquin Desprez
EXTT8=Josquin Desprez
EXTT9=Josquin Desprez
EXTT10=Giovanni Pierluigi Da Palestrina
EXTT11=Thomas Weelkes
EXTT12=Anonymous
EXTT13=Anonymous
EXTT14=Gabrieli
EXTT15=Claudio Monteverdi
EXTT16=Claudio Monteverdi
EXTT17=Percell
EXTT18=Percell
EXTT19=Girolamo Frescobaldi
EXTT20=Girolamo Frescobaldi
EXTT21=Girolamo Frescobaldi
EXTT22=Girolamo Frescobaldi
EXTT23=Antonio Vivaldi
EXTT24=Antonio Vivaldi
EXTT25=Antonio Vivaldi
EXTT26=Qur'anic Recitation
EXTT27=Hawai'in Chant
EXTT28=Navajo Song
EXTT29=Inca Processional Music
EXTT30=Gambian Minstrel Song
EXTT31=Pygmy Polyphony
PLAYORDER=
